<svg xmlns="http://www.w3.org/2000/svg" xmlns:xlink="http://www.w3.org/1999/xlink" width="2000" zoomAndPan="magnify" viewBox="0 0 1500 1499.999933" height="2000" preserveAspectRatio="xMidYMid meet" version="1.0"><path fill="#2c3386" d="M 750.042969 1500.109375 C 336.464844 1500.109375 0 1163.644531 0 750.066406 C 0 336.476562 336.464844 0.0117188 750.042969 0.0117188 C 1163.625 0.0117188 1500.101562 336.476562 1500.101562 750.066406 C 1500.101562 1163.644531 1163.625 1500.109375 750.042969 1500.109375 " fill-opacity="1" fill-rule="nonzero"></path><path fill="#ffffff" d="M 750.042969 65.578125 C 372.277344 65.578125 65.578125 372.277344 65.578125 750.066406 C 65.578125 1127.832031 372.277344 1434.535156 750.042969 1434.535156 C 1127.8125 1434.535156 1434.523438 1127.832031 1434.523438 750.066406 C 1434.523438 372.277344 1127.8125 65.578125 750.042969 65.578125 " fill-opacity="1" fill-rule="nonzero"></path><path fill="#e32124" d="M 750.042969 1415.429688 C 383.164062 1415.429688 84.683594 1116.949219 84.683594 750.066406 C 84.683594 383.171875 383.164062 84.679688 750.042969 84.679688 C 1116.9375 84.679688 1415.417969 383.171875 1415.417969 750.066406 C 1415.417969 1116.949219 1116.9375 1415.429688 750.042969 1415.429688 " fill-opacity="1" fill-rule="nonzero"></path><path fill="#ffffff" d="M 1358.222656 480.285156 C 1329.074219 414.835938 1289.691406 354.910156 1242.066406 302.597656 C 1194.0625 302.308594 1150.96875 299.140625 1114.507812 292.90625 L 894.738281 186.675781 C 694.105469 154.640625 644.117188 216.59375 573.324219 258.628906 L 667.664062 389.75 L 894.738281 368.972656 L 1109.007812 474.507812 C 1165.050781 491.566406 1268.933594 491.628906 1358.222656 480.285156 " fill-opacity="1" fill-rule="evenodd"></path><path fill="#2c3386" d="M 475.914062 143.820312 C 245.398438 248.46875 84.683594 480.851562 84.683594 750.066406 C 84.683594 1030.59375 259.195312 1271.121094 505.359375 1368.808594 C 702.976562 1290.5 846.996094 1048.257812 846.996094 761.496094 C 846.996094 460.667969 688.519531 208.789062 475.914062 143.820312 " fill-opacity="1" fill-rule="nonzero"></path><path fill="#ffffff" d="M 415.488281 491.449219 L 339.132812 482.8125 L 262.777344 584.070312 L 291.445312 477.085938 L 215.589844 467.460938 L 309.664062 409.984375 L 339.132812 302.777344 L 368.609375 374.226562 L 462.671875 317.585938 L 386.820312 419.238281 L 415.488281 491.449219 " fill-opacity="1" fill-rule="evenodd"></path><path fill="#ffffff" d="M 313.425781 881.539062 L 237.074219 872.902344 L 160.71875 974.175781 L 189.386719 867.179688 L 113.53125 857.5625 L 207.605469 800.078125 L 237.074219 692.867188 L 266.539062 764.320312 L 360.613281 707.6875 L 284.757812 809.332031 L 313.425781 881.539062 " fill-opacity="1" fill-rule="evenodd"></path><path fill="#ffffff" d="M 494.421875 1126.96875 L 418.066406 1118.335938 L 341.722656 1219.59375 L 370.390625 1112.609375 L 294.535156 1102.984375 L 388.597656 1045.496094 L 418.066406 938.289062 L 447.546875 1009.75 L 541.609375 953.109375 L 465.753906 1054.761719 L 494.421875 1126.96875 " fill-opacity="1" fill-rule="evenodd"></path><path fill="#ffffff" d="M 617.175781 688.53125 L 540.820312 679.894531 L 464.476562 781.164062 L 493.144531 674.179688 L 417.289062 664.554688 L 511.351562 607.066406 L 540.820312 499.859375 L 570.296875 571.320312 L 664.371094 514.679688 L 588.507812 616.320312 L 617.175781 688.53125 " fill-opacity="1" fill-rule="evenodd"></path><path fill="#ffffff" d="M 1408.519531 654.433594 C 1319.746094 663.421875 1231.898438 665.535156 1158.730469 657.21875 L 917.117188 572.046875 L 835.023438 620.128906 L 738.914062 795.472656 L 870.429688 746.570312 L 1163.378906 840.6875 C 1221.40625 846.175781 1331.132812 840.804688 1410.3125 832.574219 C 1413.671875 805.535156 1415.417969 778 1415.417969 750.066406 C 1415.417969 717.59375 1413.042969 685.671875 1408.519531 654.433594 " fill-opacity="1" fill-rule="evenodd"></path><path fill="#ffffff" d="M 1120.148438 884.875 L 1119.261719 884.652344 L 987.789062 868.253906 C 981.710938 856.519531 971.457031 849.628906 959.621094 849.628906 C 951.765625 849.628906 944.332031 852.753906 938.726562 857.902344 L 884.8125 825.015625 L 884.140625 821.199219 C 941.925781 782.5625 954.855469 702.816406 963.535156 649.242188 C 964.664062 642.269531 965.730469 635.691406 966.796875 629.839844 L 967.191406 627.6875 L 966.894531 625.523438 C 966.316406 621.394531 965.921875 617.207031 965.507812 612.773438 C 963.929688 596.042969 961.957031 575.222656 948.664062 541.652344 L 946.816406 537.003906 L 931.390625 528.761719 C 929.972656 521.734375 926.59375 514.082031 921.199219 505.636719 C 923.34375 496.277344 924.898438 481.960938 923.777344 466.851562 C 972.714844 392.257812 951.925781 314.484375 920.835938 282.425781 C 874.769531 234.941406 818.640625 224.824219 769.652344 219.078125 L 769.191406 219.011719 L 768.722656 218.992188 C 762.230469 218.683594 755.726562 218.523438 749.382812 218.523438 C 655.351562 218.523438 531.171875 254.128906 473.535156 423.8125 L 473.417969 424.175781 L 473.3125 424.546875 C 447.769531 516.375 448.707031 650.375 499.890625 728.808594 C 521.214844 761.472656 549.335938 781.976562 583.625 789.886719 L 584.902344 884.097656 C 567.035156 894.363281 547.40625 918.03125 535.671875 933.640625 C 532.472656 937.894531 527.460938 944.792969 521.929688 953.214844 C 502.632812 968.949219 481.734375 984.140625 461.136719 999.109375 C 420.476562 1028.652344 382.074219 1056.554688 359.515625 1086.414062 C 323.308594 1134.304688 286.464844 1222.984375 277.550781 1245.097656 C 400.445312 1362.433594 566.898438 1434.535156 750.042969 1434.535156 C 1013.34375 1434.535156 1242.078125 1285.523438 1356.546875 1067.320312 C 1312.28125 980.207031 1224.667969 912.382812 1120.148438 884.875 " fill-opacity="1" fill-rule="evenodd"></path><path fill="#2c3386" d="M 1348.574219 1082.085938 C 1302.589844 983.597656 1208.515625 922.242188 1116.671875 898.074219 L 942.863281 876.402344 L 872.433594 833.457031 L 869.097656 814.417969 C 936.070312 777.015625 943.972656 678.945312 953.375 627.386719 C 950.515625 606.738281 951.988281 587.089844 935.976562 546.683594 L 918.492188 537.34375 C 918.90625 530.339844 915.515625 520.894531 906.328125 507.992188 C 908.714844 502.128906 912.019531 483.207031 909.738281 463.269531 C 956.539062 395.6875 940.816406 322.628906 911.039062 291.925781 C 868.96875 248.566406 817.507812 238.4375 768.0625 232.625 C 656.929688 227.1875 540.765625 268.332031 486.457031 428.207031 C 453.570312 546.460938 464.335938 759.40625 597.109375 778.542969 L 598.667969 892.199219 C 547.164062 972.820312 418.046875 1031.59375 370.402344 1094.636719 C 330.378906 1147.589844 288.257812 1255.074219 288.257812 1255.074219 C 288.257812 1255.074219 288.257812 1255.085938 288.265625 1255.085938 C 410.027344 1366.503906 572.152344 1434.535156 750.042969 1434.535156 C 1007.363281 1434.535156 1231.664062 1292.207031 1348.574219 1082.085938 " fill-opacity="1" fill-rule="evenodd"></path><path fill="#ffffff" d="M 896.816406 530.753906 L 886.742188 504.761719 L 893.46875 473.738281 L 886.742188 465.347656 C 879.546875 447.386719 885.3125 440.816406 877.074219 439.273438 C 870.324219 438.015625 860.664062 441.285156 849.011719 446.90625 C 850.269531 406.359375 835.089844 384.933594 818.714844 370.453125 C 687.058594 368.375 644.03125 459.804688 627.632812 560.105469 L 599.125 545.019531 C 574.179688 571.109375 583.945312 697.730469 635.671875 648.699219 C 636.855469 666.386719 624.5625 681.40625 611.714844 680.855469 L 616.992188 927.191406 C 625.011719 1004.847656 635.023438 1066.851562 666.929688 1117.480469 C 692.964844 1074.039062 716.441406 1041.222656 750.824219 963.429688 C 781.921875 865.996094 704.5625 868.222656 709.394531 802.21875 C 709.394531 802.21875 812.304688 827.734375 858.332031 794.597656 C 772.742188 810.164062 723.316406 801.335938 686.34375 746.269531 C 841.398438 780.28125 887.210938 717.964844 931.199219 654.019531 L 925.324219 557.589844 L 896.816406 530.753906 " fill-opacity="1" fill-rule="evenodd"></path><path fill="#2c3386" d="M 859.535156 522.597656 C 783.167969 547.972656 737.175781 562.664062 697.347656 575.160156 L 616.257812 525.605469 L 598.230469 541.375 L 690.597656 601.449219 L 707.859375 661.515625 L 692.101562 737.359375 L 621.128906 662.3125 L 605.734375 676.535156 L 704.628906 778.550781 C 814.511719 817.09375 842.988281 775.800781 894.097656 756.675781 L 945.164062 641.992188 C 946.445312 584.59375 934.652344 553.667969 916.625 535.371094 L 859.535156 522.597656 " fill-opacity="1" fill-rule="evenodd"></path><path fill="#ffffff" d="M 768.0625 249.714844 C 734.308594 250.089844 601.511719 237.605469 522.929688 392.042969 C 457.117188 521.351562 491.339844 742.527344 597.109375 758.285156 L 591.589844 668.285156 C 557.035156 602.761719 565.394531 550.679688 603.316406 523.207031 C 612.144531 502.160156 616.320312 486.800781 651.121094 434.003906 C 694.277344 382.414062 723.882812 360.441406 809.621094 354.71875 C 863.617188 353.738281 893.351562 388.941406 892.710938 411.691406 C 899.992188 424.207031 900.878906 437.492188 901.890625 456.925781 C 930.175781 395.976562 930.132812 342.917969 894.984375 302.832031 C 861.570312 273.140625 830.410156 257.402344 768.0625 249.714844 " fill-opacity="1" fill-rule="evenodd"></path><path fill="#2c3386" d="M 778.457031 463.269531 C 753.265625 470.273438 740.152344 471.851562 728.753906 472.640625 C 706.824219 489.6875 695.917969 500.839844 690.832031 503.503906 C 695.640625 504.976562 712.433594 499.539062 737.914062 485.0625 L 768.0625 483.558594 L 777.699219 494.070312 C 742.964844 496.683594 721.441406 506.40625 712.667969 517.375 L 743.425781 511 C 745.160156 523.035156 762.742188 528.527344 779.949219 513.589844 C 783.0625 522.011719 755.597656 534.570312 756.601562 545.882812 C 766.953125 540.660156 778.457031 535.277344 797.976562 528.601562 L 794.980469 510.585938 L 805.492188 479.1875 L 778.457031 463.269531 " fill-opacity="1" fill-rule="evenodd"></path><path fill="#2c3386" d="M 872.402344 463.269531 C 856.207031 466.660156 848.457031 472.578125 843.03125 479.1875 L 838.523438 494.070312 L 854.289062 533.867188 L 869.320312 535.371094 L 852.050781 491.0625 L 871.273438 481.105469 C 888.628906 488.496094 897.9375 490.851562 903.863281 491.0625 L 899.34375 468.535156 L 872.402344 463.269531 " fill-opacity="1" fill-rule="evenodd"></path><path fill="#2c3386" d="M 871.519531 490.617188 L 846.675781 497.449219 L 853.542969 513.589844 L 865.144531 512.503906 L 878.648438 521.929688 C 888.542969 524.125 894.566406 515.746094 903.863281 518.847656 L 899.34375 504.582031 L 871.519531 490.617188 " fill-opacity="1" fill-rule="evenodd"></path><path fill="#2c3386" d="M 587.121094 561.652344 L 578.710938 576.664062 L 598.230469 578.175781 L 598.230469 591.683594 C 585.96875 607.34375 599.371094 614.785156 612.503906 618.710938 L 605 566.148438 L 587.121094 561.652344 " fill-opacity="1" fill-rule="evenodd"></path><path fill="#ffffff" d="M 861.058594 535.371094 L 704.863281 590.191406 C 717.988281 623.539062 724.949219 648.519531 725.898438 665.277344 C 713.699219 716.589844 708.59375 736.398438 703.359375 756.675781 C 791.761719 808.179688 841.625 784.535156 896.347656 770.40625 C 916.605469 743.148438 929.578125 681.664062 936.445312 631.480469 C 937.671875 611.023438 926.101562 589.550781 919.128906 551.757812 L 861.058594 535.371094 " fill-opacity="1" fill-rule="evenodd"></path><path fill="#2c3386" d="M 871.199219 548.878906 L 882.082031 572.164062 L 856.550781 570.660156 L 768.0625 601.449219 L 857.285156 586.429688 L 886.582031 590.191406 L 888.832031 611.203125 L 926.378906 631.480469 L 908.351562 561.652344 L 871.199219 548.878906 " fill-opacity="1" fill-rule="evenodd"></path><path fill="#2c3386" d="M 763.5625 658.53125 C 763.5625 658.53125 871.410156 628.625 881.335938 639 L 895.589844 644.253906 L 894.84375 669.777344 L 854.726562 673.53125 L 789.714844 698.316406 L 857.285156 684.042969 L 890.34375 686.300781 L 881.335938 724.585938 C 869.023438 752.144531 858 766.910156 847.230469 779.148438 C 854.609375 777.902344 859.757812 778.039062 887.648438 764.03125 C 903.425781 740.460938 917.628906 680.777344 921.890625 640.492188 L 884.332031 625.46875 C 853.363281 612.972656 747.476562 656.941406 763.5625 658.53125 " fill-opacity="1" fill-rule="evenodd"></path><path fill="#ffffff" d="M 921.390625 1010.335938 L 804.585938 954.472656 L 637.921875 1190.992188 L 655.980469 1142.632812 C 628.804688 1082.011719 607.898438 1022.46875 595.328125 943.855469 C 525.351562 996.753906 453.152344 1034.859375 389.421875 1102.097656 C 354.324219 1156.5 328.332031 1214.445312 312.617188 1276.332031 C 336.242188 1296.003906 361.222656 1314.085938 387.375 1330.46875 L 405.230469 1216.757812 C 418.417969 1281.121094 434.496094 1314.660156 460.402344 1370.257812 C 548.390625 1411.464844 646.535156 1434.535156 750.042969 1434.535156 C 884.4375 1434.535156 1009.824219 1395.683594 1115.625 1328.648438 C 1097.085938 1262.34375 1095.976562 1209.390625 1091.808594 1132.972656 C 1120.019531 1204.988281 1145.734375 1242.578125 1182.546875 1280.394531 C 1221.480469 1248.59375 1256.84375 1212.601562 1287.964844 1173.101562 C 1327.144531 1123.355469 1260.628906 1004.421875 1202.269531 984.972656 L 921.390625 1010.335938 " fill-opacity="1" fill-rule="evenodd"></path><path fill="#ffffff" d="M 819.949219 970.304688 L 882.039062 855.972656 L 876.335938 845.460938 L 804.585938 954.472656 L 819.949219 970.304688 " fill-opacity="1" fill-rule="evenodd"></path><path fill="#2c3386" d="M 942.863281 876.402344 C 899.800781 1098.867188 855.335938 1223.710938 794.03125 1320.875 L 822.773438 1338.019531 C 902.988281 1203.933594 936.230469 1067.90625 977.03125 877.488281 C 968.320312 855.472656 946.433594 862.179688 942.863281 876.402344 " fill-opacity="1" fill-rule="evenodd"></path><path fill="#2c3386" d="M 804.585938 1264.191406 C 763.851562 1264.191406 730.78125 1297.273438 730.78125 1338.019531 C 730.78125 1378.734375 763.851562 1411.804688 804.585938 1411.804688 C 845.3125 1411.804688 878.394531 1378.734375 878.394531 1338.019531 C 878.394531 1297.273438 845.3125 1264.191406 804.585938 1264.191406 " fill-opacity="1" fill-rule="evenodd"></path><path fill="#ffffff" d="M 770.566406 1342.527344 C 770.566406 1366.058594 787.976562 1385.554688 810.601562 1388.796875 C 798.671875 1380.332031 790.878906 1366.398438 790.878906 1350.664062 C 790.878906 1324.839844 811.828125 1303.890625 837.625 1303.890625 C 839.898438 1303.890625 842.125 1304.074219 844.3125 1304.394531 C 836.675781 1298.976562 827.371094 1295.777344 817.304688 1295.777344 C 791.507812 1295.777344 770.566406 1316.738281 770.566406 1342.527344 " fill-opacity="1" fill-rule="evenodd"></path><path fill="#2c3386" d="M 624.625 1202.257812 C 618.175781 1170.265625 610.746094 1070.519531 532.492188 1034.964844 C 526.222656 995.785156 584.925781 943.011719 602.824219 893.03125 C 581.652344 885.515625 494.742188 999.269531 505.199219 1035.488281 C 454.890625 1116.789062 462.332031 1186.480469 476.253906 1246.546875 C 493.972656 1309.882812 513.878906 1358.914062 535 1399.96875 C 547.941406 1404.246094 561.042969 1408.160156 574.316406 1411.675781 C 547.492188 1365.707031 523.109375 1320.703125 500.105469 1226.171875 C 476.074219 1141.011719 519.132812 1065.304688 519.132812 1065.304688 C 558.613281 1073.609375 583.175781 1130.5625 596.546875 1189.945312 L 654.414062 1427.839844 C 664.167969 1429.203125 673.988281 1430.375 683.882812 1431.335938 L 624.625 1202.257812 " fill-opacity="1" fill-rule="evenodd"></path><path fill="#ffffff" d="M 942.957031 1036.753906 L 954.78125 1059.015625 C 965.15625 1036.722656 979.417969 950.324219 970.082031 903.917969 L 942.957031 1036.753906 " fill-opacity="1" fill-rule="evenodd"></path><path fill="#2c3386" d="M 695.191406 1259.550781 C 765.984375 1174.699219 837.859375 1082.128906 912.96875 966.296875 L 907.234375 947.136719 C 831.089844 1072.628906 762.261719 1169.550781 695.191406 1259.550781 " fill-opacity="1" fill-rule="evenodd"></path><path fill="#ffffff" d="M 807.699219 369.707031 L 825.886719 386.457031 C 835.878906 377.90625 865.65625 390.761719 884.355469 417.789062 C 873.757812 383.621094 843.289062 362.234375 807.699219 369.707031 " fill-opacity="1" fill-rule="evenodd"></path><path fill="#2c3386" d="M 884.355469 392.992188 L 891.871094 403.972656 C 901.730469 393.164062 906.027344 372.660156 906.957031 346.339844 C 900.699219 368.480469 893.585938 386.125 884.355469 392.992188 " fill-opacity="1" fill-rule="evenodd"></path><path fill="#2c3386" d="M 846.027344 365.441406 L 858.457031 370.410156 C 865.261719 365.125 870.738281 349.941406 874.632812 322.820312 C 866.304688 346.253906 856.753906 360.316406 846.027344 365.441406 " fill-opacity="1" fill-rule="evenodd"></path><path fill="#2c3386" d="M 790.109375 363.238281 L 805.492188 361.03125 C 813.265625 351.839844 817.273438 333.128906 817.304688 304.441406 C 812.691406 334.621094 802.957031 352.597656 790.109375 363.238281 " fill-opacity="1" fill-rule="evenodd"></path><path fill="#2c3386" d="M 738.667969 375.144531 L 756.304688 370.410156 C 765.675781 355.25 770.664062 335.003906 772.476562 311.0625 C 763.914062 345.367188 752.15625 364.355469 738.667969 375.144531 " fill-opacity="1" fill-rule="evenodd"></path><path fill="#2c3386" d="M 696.769531 394.835938 L 714.414062 387.492188 C 722.101562 374.183594 724.277344 352.179688 721.761719 322.820312 C 719.53125 359.25 710.183594 381.191406 696.769531 394.835938 " fill-opacity="1" fill-rule="evenodd"></path><path fill="#2c3386" d="M 662.164062 363.238281 C 649.265625 389.582031 641.726562 414.804688 657.078125 435.261719 L 668.847656 424.230469 C 652.398438 418.238281 657.472656 390.957031 662.164062 363.238281 " fill-opacity="1" fill-rule="evenodd"></path><path fill="#2c3386" d="M 604.902344 424.230469 C 601.023438 450.167969 610.414062 480.15625 625.492188 495.519531 L 635.777344 471.277344 C 621.332031 469.039062 607.621094 446 604.902344 424.230469 " fill-opacity="1" fill-rule="evenodd"></path><path fill="#2c3386" d="M 582.132812 472.738281 C 580.765625 498.28125 585.148438 520.222656 606.386719 531.535156 L 612.25 516.097656 C 597.453125 517.078125 588.464844 499.199219 582.132812 472.738281 " fill-opacity="1" fill-rule="evenodd"></path><path fill="#2c3386" d="M 532.886719 617.527344 C 549.847656 650.160156 568.730469 671.984375 591.683594 671.171875 L 588.742188 650.597656 C 567.566406 656.246094 549.925781 638.890625 532.886719 617.527344 " fill-opacity="1" fill-rule="evenodd"></path><path fill="#2c3386" d="M 531.757812 681.097656 C 561.03125 703.347656 587.429688 715.011719 607.847656 704.46875 L 596.386719 687.132812 C 579.65625 701.28125 556.289062 693.136719 531.757812 681.097656 " fill-opacity="1" fill-rule="evenodd"></path><path fill="#2c3386" d="M 536.042969 972.957031 C 522.054688 1074.378906 587.335938 1277.21875 587.335938 1277.21875 C 543.75 1180.277344 512.269531 1061.90625 523.21875 985.785156 L 536.042969 972.957031 " fill-opacity="1" fill-rule="evenodd"></path></svg>