<svg width="958" height="224" viewBox="0 0 958 224" fill="none" xmlns="http://www.w3.org/2000/svg">
<g clip-path="url(#clip0_1_7)">
<g clip-path="url(#clip1_1_7)">
<path d="M112.006 224.016C50.2454 224.016 0 173.771 0 112.01C0 50.2471 50.2454 0.00170898 112.006 0.00170898C173.768 0.00170898 224.015 50.2471 224.015 112.01C224.015 173.771 173.768 224.016 112.006 224.016Z" fill="#2C3386"/>
<path d="M112.006 9.79297C55.5934 9.79297 9.79297 55.5934 9.79297 112.01C9.79297 168.423 55.5934 214.224 112.006 214.224C168.42 214.224 214.222 168.423 214.222 112.01C214.222 55.5934 168.42 9.79297 112.006 9.79297Z" fill="white"/>
<path d="M112.006 211.371C57.2192 211.371 12.6461 166.798 12.6461 112.01C12.6461 57.2203 57.2192 12.6455 112.006 12.6455C166.796 12.6455 211.369 57.2203 211.369 112.01C211.369 166.798 166.796 211.371 112.006 211.371Z" fill="#E32124"/>
<path fill-rule="evenodd" clip-rule="evenodd" d="M202.828 71.7226C198.475 61.9489 192.594 53 185.482 45.188C178.313 45.1448 171.878 44.6717 166.433 43.7407L133.614 27.877C103.653 23.093 96.1882 32.3447 85.6165 38.622L99.7045 58.2027L133.614 55.1L165.612 70.8599C173.981 73.4073 189.494 73.4166 202.828 71.7226Z" fill="white"/>
<path d="M71.0699 21.4772C36.6462 37.1047 12.6461 71.8072 12.6461 112.01C12.6461 153.902 38.7065 189.821 75.467 204.409C104.978 192.715 126.485 156.54 126.485 113.717C126.485 68.7931 102.819 31.1792 71.0699 21.4772Z" fill="#2C3386"/>
<path fill-rule="evenodd" clip-rule="evenodd" d="M62.0462 73.3897L50.6438 72.1L39.2414 87.2211L43.5225 71.2448L32.1947 69.8075L46.2431 61.2243L50.6438 45.2147L55.0456 55.8845L69.0923 47.4261L57.7651 62.6062L62.0462 73.3897Z" fill="white"/>
<path fill-rule="evenodd" clip-rule="evenodd" d="M46.8049 131.643L35.4031 130.353L24.0006 145.477L28.2817 129.499L16.954 128.063L31.0024 119.478L35.4031 103.468L39.8031 114.138L53.8516 105.681L42.5238 120.86L46.8049 131.643Z" fill="white"/>
<path fill-rule="evenodd" clip-rule="evenodd" d="M73.8336 168.294L62.4312 167.005L51.0306 182.126L55.3116 166.15L43.9839 164.712L58.0306 156.127L62.4312 140.118L66.8336 150.789L80.8803 142.331L69.5526 157.511L73.8336 168.294Z" fill="white"/>
<path fill-rule="evenodd" clip-rule="evenodd" d="M92.1649 102.821L80.7625 101.531L69.3619 116.654L73.6429 100.677L62.3152 99.2401L76.3619 90.6552L80.7625 74.6456L85.1644 85.3171L99.2128 76.8588L87.8839 92.0371L92.1649 102.821Z" fill="white"/>
<path fill-rule="evenodd" clip-rule="evenodd" d="M210.339 97.7287C197.082 99.071 183.963 99.3866 173.037 98.1447L136.956 85.4257L124.697 92.6059L110.344 118.791L129.984 111.488L173.731 125.543C182.397 126.362 198.782 125.56 210.607 124.331C211.108 120.293 211.369 116.181 211.369 112.01C211.369 107.161 211.014 102.394 210.339 97.7287Z" fill="white"/>
<path fill-rule="evenodd" clip-rule="evenodd" d="M167.276 132.141L167.143 132.108L147.51 129.659C146.602 127.907 145.071 126.878 143.303 126.878C142.13 126.878 141.02 127.345 140.183 128.113L132.132 123.202L132.032 122.632C140.661 116.863 142.592 104.954 143.888 96.9535C144.057 95.9122 144.216 94.9299 144.375 94.0561L144.434 93.7346L144.39 93.4115C144.303 92.7949 144.244 92.1696 144.183 91.5075C143.947 89.0091 143.652 85.8999 141.667 80.8867L141.391 80.1926L139.088 78.9617C138.876 77.9123 138.371 76.7696 137.566 75.5084C137.886 74.1107 138.118 71.9728 137.951 69.7165C145.259 58.5771 142.154 46.963 137.512 42.1756C130.632 35.0846 122.25 33.5737 114.935 32.7156L114.866 32.7057L114.796 32.7028C113.826 32.6567 112.855 32.6328 111.908 32.6328C97.8659 32.6328 79.3217 37.9499 70.7146 63.2893L70.6971 63.3436L70.6814 63.399C66.867 77.112 67.007 97.1227 74.6504 108.835C77.8348 113.713 82.0342 116.775 87.1547 117.956L87.3455 132.025C84.6773 133.558 81.746 137.093 79.9937 139.424C79.516 140.059 78.7675 141.089 77.9415 142.347C75.0599 144.696 71.939 146.965 68.8631 149.2C62.7912 153.612 57.0565 157.779 53.6877 162.238C48.2808 169.389 42.7788 182.632 41.4476 185.935C59.7999 203.457 84.6569 214.224 112.006 214.224C151.326 214.224 185.484 191.971 202.578 159.386C195.967 146.378 182.884 136.249 167.276 132.141Z" fill="white"/>
<path fill-rule="evenodd" clip-rule="evenodd" d="M201.387 161.591C194.52 146.884 180.472 137.721 166.756 134.112L140.801 130.876L130.283 124.463L129.785 121.62C139.787 116.034 140.967 101.389 142.371 93.6897C141.944 90.6062 142.164 87.6721 139.773 81.6381L137.162 80.2433C137.223 79.1974 136.717 77.7869 135.345 75.8601C135.701 74.9846 136.195 72.1589 135.854 69.1816C142.843 59.0893 140.495 48.1792 136.049 43.5942C129.766 37.1192 122.081 35.6066 114.697 34.7386C98.1015 33.9266 80.7543 40.0709 72.6443 63.9456C67.7332 81.6048 69.3408 113.405 89.1683 116.262L89.4011 133.235C81.7098 145.274 62.4283 154.051 55.3134 163.466C49.3366 171.373 43.0465 187.424 43.0465 187.424C43.0465 187.424 43.0465 187.426 43.0477 187.426C61.2308 204.065 85.4414 214.224 112.006 214.224C150.433 214.224 183.929 192.97 201.387 161.591Z" fill="#2C3386"/>
<path fill-rule="evenodd" clip-rule="evenodd" d="M133.925 79.2592L132.42 75.3777L133.425 70.7449L132.42 69.4919C131.346 66.8097 132.207 65.8286 130.976 65.5982C129.968 65.4103 128.526 65.8986 126.786 66.738C126.974 60.683 124.707 57.4834 122.261 55.321C102.601 55.0107 96.1753 68.6642 93.7264 83.6424L89.4693 81.3896C85.7441 85.2857 87.2024 104.194 94.9269 96.8724C95.1037 99.5137 93.2679 101.757 91.3494 101.674L92.1374 138.461C93.335 150.057 94.8301 159.316 99.5948 166.877C103.483 160.39 106.989 155.489 112.123 143.872C116.767 129.322 105.215 129.655 105.936 119.798C105.936 119.798 121.304 123.608 128.178 118.66C115.396 120.984 108.015 119.666 102.494 111.443C125.649 116.522 132.49 107.216 139.059 97.6669L138.182 83.2667L133.925 79.2592Z" fill="white"/>
<path fill-rule="evenodd" clip-rule="evenodd" d="M128.357 78.0413C116.953 81.8306 110.085 84.0245 104.137 85.8906L92.0278 78.4904L89.3357 80.8453L103.129 89.8164L105.707 98.7863L103.354 110.112L92.7552 98.9053L90.4563 101.029L105.225 116.264C121.634 122.019 125.886 115.853 133.519 112.997L141.144 95.8708C141.336 87.2993 139.575 82.6811 136.883 79.9488L128.357 78.0413Z" fill="#2C3386"/>
<path fill-rule="evenodd" clip-rule="evenodd" d="M114.697 37.2908C109.657 37.3468 89.8258 35.4824 78.0909 58.5451C68.2629 77.8552 73.3735 110.884 89.1684 113.237L88.3441 99.7973C83.184 90.0124 84.4323 82.2348 90.0953 78.1323C91.4136 74.9893 92.0372 72.6956 97.2341 64.8113C103.679 57.1072 108.1 53.8259 120.903 52.9713C128.967 52.8249 133.407 58.0819 133.312 61.4793C134.399 63.3483 134.531 65.3322 134.682 68.2343C138.906 59.1325 138.9 51.2091 133.651 45.2229C128.661 40.789 124.008 38.4388 114.697 37.2908Z" fill="white"/>
<path fill-rule="evenodd" clip-rule="evenodd" d="M116.25 69.1816C112.488 70.2276 110.529 70.4632 108.827 70.5811C105.552 73.1267 103.924 74.7921 103.164 75.19C103.882 75.4099 106.39 74.5979 110.195 72.4361L114.697 72.2115L116.136 73.7812C110.949 74.1715 107.735 75.6234 106.425 77.2614L111.018 76.3094C111.277 78.1066 113.903 78.9268 116.472 76.6961C116.937 77.9538 112.836 79.8292 112.986 81.5186C114.532 80.7386 116.25 79.9348 119.165 78.9379L118.717 76.2476L120.287 71.5587L116.25 69.1816Z" fill="#2C3386"/>
<path fill-rule="evenodd" clip-rule="evenodd" d="M130.279 69.1816C127.86 69.688 126.703 70.5717 125.893 71.5587L125.219 73.7812L127.574 79.7242L129.818 79.9488L127.24 73.3321L130.11 71.8451C132.702 72.9488 134.092 73.3006 134.977 73.3321L134.302 69.968L130.279 69.1816Z" fill="#2C3386"/>
<path fill-rule="evenodd" clip-rule="evenodd" d="M130.147 73.2655L126.437 74.2858L127.462 76.6961L129.195 76.5339L131.211 77.9415C132.689 78.2693 133.589 77.0181 134.977 77.4813L134.302 75.3509L130.147 73.2655Z" fill="#2C3386"/>
<path fill-rule="evenodd" clip-rule="evenodd" d="M87.6767 83.8734L86.4208 86.1152L89.3357 86.3409V88.3581C87.5046 90.6967 89.506 91.8079 91.4672 92.3942L90.3466 84.5448L87.6767 83.8734Z" fill="#2C3386"/>
<path fill-rule="evenodd" clip-rule="evenodd" d="M128.585 79.9487L105.26 88.1352C107.22 93.1151 108.259 96.8456 108.401 99.3481C106.579 107.011 105.817 109.969 105.035 112.997C118.236 120.688 125.683 117.157 133.855 115.047C136.88 110.977 138.817 101.795 139.843 94.3011C140.026 91.2461 138.298 88.0396 137.257 82.3958L128.585 79.9487Z" fill="white"/>
<path fill-rule="evenodd" clip-rule="evenodd" d="M130.099 81.9659L131.724 85.4432L127.912 85.2186L114.697 89.8164L128.021 87.5735L132.396 88.1353L132.732 91.273L138.339 94.3011L135.647 83.8734L130.099 81.9659Z" fill="#2C3386"/>
<path fill-rule="evenodd" clip-rule="evenodd" d="M114.025 98.3407C114.025 98.3407 130.131 93.8747 131.613 95.424L133.741 96.2086L133.63 100.02L127.639 100.581L117.931 104.282L128.021 102.15L132.958 102.488L131.613 108.205C129.774 112.32 128.128 114.525 126.52 116.353C127.622 116.167 128.391 116.187 132.556 114.095C134.912 110.575 137.033 101.663 137.669 95.6468L132.06 93.4033C127.436 91.5372 111.623 98.1032 114.025 98.3407Z" fill="#2C3386"/>
<path fill-rule="evenodd" clip-rule="evenodd" d="M137.594 150.877L120.152 142.535L95.263 177.855L97.9598 170.633C93.9015 161.58 90.7795 152.689 88.9024 140.949C78.4525 148.849 67.6708 154.539 58.1537 164.58C52.9125 172.704 49.031 181.357 46.6842 190.599C50.2122 193.537 53.9426 196.237 57.848 198.683L60.5145 181.703C62.4838 191.314 64.8848 196.323 68.7535 204.625C81.893 210.779 96.5493 214.224 112.006 214.224C132.076 214.224 150.8 208.422 166.6 198.412C163.832 188.51 163.666 180.602 163.043 169.191C167.256 179.945 171.096 185.558 176.594 191.206C182.408 186.457 187.689 181.082 192.336 175.183C198.187 167.754 188.254 149.994 179.539 147.089L137.594 150.877Z" fill="white"/>
<path fill-rule="evenodd" clip-rule="evenodd" d="M122.446 144.899L131.718 127.825L130.866 126.255L120.151 142.535L122.446 144.899Z" fill="white"/>
<path fill-rule="evenodd" clip-rule="evenodd" d="M140.801 130.876C134.37 164.097 127.73 182.741 118.575 197.251L122.867 199.811C134.846 179.787 139.81 159.474 145.903 131.038C144.602 127.751 141.334 128.752 140.801 130.876Z" fill="#2C3386"/>
<path fill-rule="evenodd" clip-rule="evenodd" d="M120.152 188.786C114.069 188.786 109.13 193.726 109.13 199.811C109.13 205.891 114.069 210.829 120.152 210.829C126.233 210.829 131.174 205.891 131.174 199.811C131.174 193.726 126.233 188.786 120.152 188.786Z" fill="#2C3386"/>
<path fill-rule="evenodd" clip-rule="evenodd" d="M115.071 200.484C115.071 203.998 117.671 206.91 121.05 207.394C119.268 206.13 118.105 204.049 118.105 201.699C118.105 197.843 121.233 194.714 125.085 194.714C125.425 194.714 125.757 194.742 126.084 194.79C124.944 193.981 123.554 193.503 122.051 193.503C118.199 193.503 115.071 196.633 115.071 200.484Z" fill="white"/>
<path fill-rule="evenodd" clip-rule="evenodd" d="M93.2773 179.537C92.3142 174.76 91.2047 159.864 79.5188 154.555C78.5826 148.704 87.3489 140.823 90.0217 133.359C86.8601 132.237 73.8815 149.224 75.4431 154.633C67.9303 166.774 69.0416 177.181 71.1206 186.151C73.7666 195.609 76.7392 202.931 79.8933 209.062C81.8259 209.701 83.7824 210.285 85.7646 210.81C81.7588 203.946 78.1176 197.225 74.6824 183.108C71.0937 170.391 77.5238 159.086 77.5238 159.086C83.4196 160.326 87.0876 168.831 89.0843 177.699L97.7258 213.224C99.1824 213.428 100.649 213.603 102.126 213.746L93.2773 179.537Z" fill="#2C3386"/>
<path fill-rule="evenodd" clip-rule="evenodd" d="M140.815 154.822L142.581 158.146C144.13 154.817 146.26 141.915 144.866 134.985L140.815 154.822Z" fill="white"/>
<path fill-rule="evenodd" clip-rule="evenodd" d="M103.815 188.093C114.387 175.422 125.12 161.598 136.337 144.3L135.48 141.439C124.109 160.179 113.831 174.653 103.815 188.093Z" fill="#2C3386"/>
<path fill-rule="evenodd" clip-rule="evenodd" d="M120.616 55.2095L123.332 57.7109C124.825 56.4339 129.271 58.3537 132.064 62.3898C130.481 57.2874 125.931 54.0936 120.616 55.2095Z" fill="white"/>
<path fill-rule="evenodd" clip-rule="evenodd" d="M132.064 58.6868L133.186 60.3266C134.658 58.7125 135.3 55.6506 135.439 51.7201C134.504 55.0264 133.442 57.6613 132.064 58.6868Z" fill="#2C3386"/>
<path fill-rule="evenodd" clip-rule="evenodd" d="M126.34 54.5726L128.196 55.3146C129.212 54.5254 130.03 52.258 130.612 48.2079C129.368 51.7073 127.942 53.8073 126.34 54.5726Z" fill="#2C3386"/>
<path fill-rule="evenodd" clip-rule="evenodd" d="M117.99 54.2436L120.287 53.914C121.448 52.5414 122.046 49.7473 122.051 45.4633C121.362 49.9701 119.908 52.6546 117.99 54.2436Z" fill="#2C3386"/>
<path fill-rule="evenodd" clip-rule="evenodd" d="M110.308 56.0216L112.941 55.3146C114.341 53.0507 115.086 50.0273 115.356 46.452C114.078 51.5749 112.322 54.4104 110.308 56.0216Z" fill="#2C3386"/>
<path fill-rule="evenodd" clip-rule="evenodd" d="M104.051 58.9622L106.686 57.8656C107.834 55.8781 108.159 52.5922 107.783 48.2079C107.45 53.6481 106.054 56.9246 104.051 58.9622Z" fill="#2C3386"/>
<path fill-rule="evenodd" clip-rule="evenodd" d="M98.8831 54.2435C96.957 58.1775 95.8311 61.9441 98.1236 64.999L99.8812 63.3517C97.4248 62.4569 98.1825 58.3829 98.8831 54.2435Z" fill="#2C3386"/>
<path fill-rule="evenodd" clip-rule="evenodd" d="M90.3321 63.3518C89.7528 67.2251 91.1551 71.7034 93.4068 73.9976L94.9427 70.3775C92.7856 70.0432 90.7381 66.6027 90.3321 63.3518Z" fill="#2C3386"/>
<path fill-rule="evenodd" clip-rule="evenodd" d="M86.9318 70.5956C86.7277 74.41 87.3822 77.6866 90.5538 79.3759L91.4293 77.0706C89.2197 77.217 87.8774 74.5471 86.9318 70.5956Z" fill="#2C3386"/>
<path fill-rule="evenodd" clip-rule="evenodd" d="M79.5778 92.2174C82.1106 97.0906 84.9304 100.35 88.3581 100.228L87.9188 97.1559C84.7566 97.9994 82.1223 95.4077 79.5778 92.2174Z" fill="#2C3386"/>
<path fill-rule="evenodd" clip-rule="evenodd" d="M79.4092 101.711C83.7807 105.033 87.7228 106.775 90.7719 105.201L89.0604 102.612C86.562 104.725 83.0725 103.508 79.4092 101.711Z" fill="#2C3386"/>
<path fill-rule="evenodd" clip-rule="evenodd" d="M80.0491 145.295C77.9602 160.441 87.7089 190.731 87.7089 190.731C81.2001 176.255 76.499 158.578 78.1341 147.211L80.0491 145.295Z" fill="#2C3386"/>
</g>
</g>
<path d="M319.424 160.792C312.704 160.792 306.88 159.56 301.952 157.096C297.099 154.632 293.328 151.123 290.64 146.568C287.952 141.939 286.608 136.525 286.608 130.328V79.368H303.632V130.328C303.632 135.48 304.976 139.475 307.664 142.312C310.427 145.075 314.347 146.456 319.424 146.456C324.501 146.456 328.384 145.075 331.072 142.312C333.76 139.475 335.104 135.48 335.104 130.328V79.368H352.128V130.328C352.128 136.525 350.784 141.939 348.096 146.568C345.483 151.123 341.712 154.632 336.784 157.096C331.856 159.56 326.069 160.792 319.424 160.792ZM396.046 160.792C389.177 160.792 383.278 159.635 378.35 157.32C373.422 155.005 369.577 151.757 366.814 147.576C364.051 143.395 362.483 138.467 362.11 132.792L379.246 132.008C379.694 135.144 380.59 137.832 381.934 140.072C383.353 142.237 385.219 143.88 387.534 145C389.923 146.12 392.835 146.68 396.27 146.68C399.107 146.68 401.497 146.344 403.438 145.672C405.454 145 406.985 143.992 408.03 142.648C409.075 141.229 409.598 139.512 409.598 137.496C409.598 135.629 409.15 134.024 408.254 132.68C407.358 131.261 405.641 129.992 403.102 128.872C400.563 127.677 396.83 126.52 391.902 125.4C385.107 123.832 379.619 122.077 375.438 120.136C371.331 118.195 368.345 115.768 366.478 112.856C364.611 109.869 363.678 106.136 363.678 101.656C363.678 96.8773 364.835 92.696 367.15 89.112C369.539 85.528 372.974 82.728 377.454 80.712C381.934 78.696 387.273 77.688 393.47 77.688C400.041 77.688 405.603 78.8453 410.158 81.16C414.713 83.4747 418.259 86.648 420.798 90.68C423.411 94.712 424.979 99.3413 425.502 104.568L408.478 105.464C408.254 102.701 407.507 100.312 406.238 98.296C404.969 96.2053 403.251 94.6 401.086 93.48C398.921 92.36 396.307 91.8 393.246 91.8C389.363 91.8 386.302 92.6587 384.062 94.376C381.897 96.0933 380.814 98.3333 380.814 101.096C380.814 103.037 381.299 104.68 382.27 106.024C383.315 107.293 384.995 108.413 387.31 109.384C389.699 110.355 393.059 111.288 397.39 112.184C404.782 113.677 410.606 115.581 414.862 117.896C419.193 120.136 422.254 122.824 424.046 125.96C425.838 129.096 426.734 132.68 426.734 136.712C426.734 141.64 425.465 145.933 422.926 149.592C420.462 153.176 416.915 155.939 412.286 157.88C407.731 159.821 402.318 160.792 396.046 160.792ZM436.594 159V79.48H459.33L479.602 137.384L499.762 79.48H522.498V159H505.474V107.48L486.77 158.776H472.21L453.618 107.48V159H436.594ZM536.615 159V79.48H553.639V154.408L544.231 144.664H590.263V159H536.615ZM596.495 159V79.48H651.823V93.816H613.519V112.072H650.479V126.184H613.519V144.664H652.719V159H596.495Z" fill="#1F3A8F"/>
<path d="M716.56 160.408L697.232 92.184C695.952 87.6613 694.928 84.12 694.16 81.56C693.477 78.9147 693.008 76.6533 692.752 74.776C691.557 74.8613 690.363 74.904 689.168 74.904C687.973 74.904 686.779 74.9467 685.584 75.032L685.84 69.4H716.56L716.304 73.624C711.355 73.88 708.325 74.9893 707.216 76.952C706.107 78.9147 706.107 82.456 707.216 87.576L715.408 117.4C716.432 121.24 717.456 124.909 718.48 128.408C719.504 131.821 720.571 135.533 721.68 139.544H721.936C722.448 138.093 723.003 136.557 723.6 134.936C724.283 133.229 724.923 131.565 725.52 129.944C726.117 128.323 726.672 126.829 727.184 125.464C727.696 124.013 728.123 122.861 728.464 122.008L747.92 69.144H751.376L764.688 117.4C765.797 121.24 766.864 125.08 767.888 128.92C768.997 132.76 770.064 136.685 771.088 140.696H771.344C772.283 138.221 773.307 135.576 774.416 132.76C775.611 129.859 776.763 126.915 777.872 123.928C780.176 117.528 782.139 112.195 783.76 107.928C785.381 103.661 786.704 100.12 787.728 97.304C788.837 94.488 789.776 92.056 790.544 90.008C791.397 87.96 792.208 85.9547 792.976 83.992C793.488 82.5413 794.128 81.0053 794.896 79.384C795.664 77.6773 796.475 76.0987 797.328 74.648C795.621 74.7333 793.915 74.8187 792.208 74.904C790.501 74.904 788.795 74.9467 787.088 75.032L787.344 69.4H813.328L813.072 73.624C810.939 73.88 809.104 74.3067 807.568 74.904C806.117 75.416 804.837 76.312 803.728 77.592C802.619 78.872 801.467 80.7067 800.272 83.096C799.163 85.4853 797.84 88.6427 796.304 92.568L769.68 160.408H766.352L751.76 109.976C750.48 105.539 749.456 101.912 748.688 99.096C748.005 96.28 747.323 93.592 746.64 91.032H746.128C745.019 93.848 743.952 96.664 742.928 99.48C741.904 102.296 740.837 105.112 739.728 107.928L719.888 160.408H716.56ZM822.714 93.592C826.298 93.592 828.986 94.8293 830.778 97.304C832.57 99.6933 833.466 102.893 833.466 106.904C833.466 109.464 833.21 112.408 832.698 115.736C832.271 118.979 831.717 122.477 831.034 126.232C830.351 129.987 829.754 133.784 829.242 137.624C828.815 141.379 828.602 145.048 828.602 148.632C828.602 150.339 828.901 151.661 829.498 152.6C830.181 153.539 831.205 154.008 832.57 154.008C834.021 154.008 835.599 153.069 837.306 151.192C839.098 149.315 840.634 146.115 841.914 141.592L845.498 142.36C845.157 144.152 844.559 146.115 843.706 148.248C842.938 150.296 841.914 152.259 840.634 154.136C839.354 155.928 837.775 157.421 835.898 158.616C834.106 159.811 832.015 160.408 829.626 160.408C825.701 160.408 822.799 159.384 820.922 157.336C819.045 155.288 818.106 152.301 818.106 148.376C818.106 144.621 818.362 140.995 818.874 137.496C819.386 133.912 819.941 130.413 820.538 127C821.221 123.501 821.818 120.003 822.33 116.504C822.842 113.005 823.098 109.421 823.098 105.752C823.098 104.643 822.842 103.405 822.33 102.04C821.903 100.675 820.965 99.992 819.514 99.992C818.149 99.992 816.57 100.931 814.778 102.808C812.986 104.685 811.45 107.885 810.17 112.408L806.586 111.64C806.842 110.104 807.354 108.355 808.122 106.392C808.89 104.344 809.914 102.339 811.194 100.376C812.559 98.4133 814.181 96.792 816.058 95.512C817.935 94.232 820.154 93.592 822.714 93.592ZM830.01 65.944C831.973 65.944 833.594 66.6267 834.874 67.992C836.154 69.272 836.794 71.0213 836.794 73.24C836.794 75.3733 836.111 77.1227 834.746 78.488C833.381 79.768 831.759 80.408 829.882 80.408C828.005 80.408 826.383 79.768 825.018 78.488C823.738 77.1227 823.098 75.3733 823.098 73.24C823.098 71.0213 823.781 69.272 825.146 67.992C826.511 66.6267 828.133 65.944 830.01 65.944ZM868.95 160.408C865.537 160.408 862.251 159.896 859.094 158.872C855.937 157.763 853.377 156.184 851.414 154.136C849.451 152.088 848.47 149.613 848.47 146.712C848.47 144.835 848.982 143.341 850.006 142.232C851.115 141.037 852.438 140.44 853.974 140.44C855.681 140.44 856.961 140.995 857.814 142.104C858.753 143.213 859.222 144.451 859.222 145.816C859.222 146.413 859.137 147.053 858.966 147.736C858.795 148.419 858.497 149.101 858.07 149.784C858.753 151.661 860.118 153.112 862.166 154.136C864.214 155.16 866.39 155.672 868.694 155.672C873.302 155.672 876.758 154.605 879.062 152.472C881.366 150.339 882.518 147.352 882.518 143.512C882.518 141.208 881.707 139.16 880.086 137.368C878.465 135.576 876.417 133.912 873.942 132.376C871.467 130.755 868.907 129.176 866.262 127.64C863.787 126.104 861.398 124.525 859.094 122.904C856.875 121.283 855.041 119.491 853.59 117.528C852.225 115.565 851.542 113.347 851.542 110.872C851.542 107.715 852.481 104.856 854.358 102.296C856.235 99.6507 858.838 97.56 862.166 96.024C865.494 94.4027 869.334 93.592 873.686 93.592C876.929 93.592 879.958 94.104 882.774 95.128C885.675 96.152 888.022 97.6027 889.814 99.48C891.691 101.357 892.63 103.576 892.63 106.136C892.63 107.928 892.118 109.379 891.094 110.488C890.07 111.512 888.79 112.024 887.254 112.024C885.718 112.024 884.481 111.512 883.542 110.488C882.603 109.464 882.134 108.269 882.134 106.904C882.134 106.221 882.219 105.581 882.39 104.984C882.561 104.301 882.859 103.619 883.286 102.936C882.859 101.485 881.793 100.291 880.086 99.352C878.465 98.328 876.203 97.816 873.302 97.816C871.425 97.816 869.59 98.2427 867.798 99.096C866.006 99.9493 864.513 101.144 863.318 102.68C862.123 104.131 861.526 105.88 861.526 107.928C861.526 109.549 861.995 111.043 862.934 112.408C863.958 113.773 865.281 115.053 866.902 116.248C868.523 117.443 870.273 118.637 872.15 119.832C875.222 121.624 878.379 123.544 881.622 125.592C884.865 127.555 887.553 129.816 889.686 132.376C891.905 134.936 893.014 138.051 893.014 141.72C893.014 145.304 891.99 148.504 889.942 151.32C887.979 154.136 885.163 156.355 881.494 157.976C877.91 159.597 873.729 160.408 868.95 160.408ZM932.916 93.592C935.988 93.592 938.889 94.0613 941.62 95C944.351 95.9387 946.569 97.4747 948.276 99.608C949.983 101.741 950.836 104.643 950.836 108.312C950.836 111.811 949.641 114.84 947.252 117.4C944.863 119.96 941.748 122.093 937.908 123.8C934.068 125.421 929.972 126.744 925.62 127.768C921.268 128.792 917.087 129.517 913.076 129.944C913.076 135.235 913.588 139.672 914.612 143.256C915.721 146.84 917.343 149.528 919.476 151.32C921.609 153.112 924.34 154.008 927.668 154.008C930.143 154.008 932.617 153.453 935.092 152.344C937.652 151.235 940.084 149.571 942.388 147.352C944.692 145.048 946.783 142.104 948.66 138.52L952.884 140.952C950.495 145.389 947.935 149.059 945.204 151.96C942.473 154.861 939.487 156.995 936.244 158.36C933.001 159.725 929.417 160.408 925.492 160.408C917.385 160.408 911.412 157.891 907.572 152.856C903.732 147.736 901.812 141.037 901.812 132.76C901.812 127.811 902.452 122.989 903.732 118.296C905.012 113.603 906.932 109.421 909.492 105.752C912.052 101.997 915.295 99.0533 919.22 96.92C923.145 94.7013 927.711 93.592 932.916 93.592ZM931.124 97.944C927.199 97.944 923.956 99.2667 921.396 101.912C918.921 104.557 917.001 107.971 915.636 112.152C914.356 116.333 913.545 120.728 913.204 125.336C917.727 124.739 922.036 123.672 926.132 122.136C930.228 120.6 933.599 118.637 936.244 116.248C938.889 113.773 940.212 110.915 940.212 107.672C940.212 104.941 939.444 102.637 937.908 100.76C936.457 98.8827 934.196 97.944 931.124 97.944Z" fill="white"/>
<defs>
<clipPath id="clip0_1_7">
<rect width="224" height="224" fill="white"/>
</clipPath>
<clipPath id="clip1_1_7">
<rect width="224" height="224" fill="white"/>
</clipPath>
</defs>
</svg>
