<svg width="678" height="464" viewBox="0 0 678 464" fill="none" xmlns="http://www.w3.org/2000/svg">
<g clip-path="url(#clip0_1_78)">
<g clip-path="url(#clip1_1_78)">
<path d="M339.008 288.021C259.601 288.021 195 223.42 195 144.013C195 64.6035 259.601 0.00219727 339.008 0.00219727C418.416 0.00219727 483.019 64.6035 483.019 144.013C483.019 223.42 418.416 288.021 339.008 288.021Z" fill="#2C3386"/>
<path d="M339.008 12.5909C266.477 12.5909 207.591 71.4772 207.591 144.013C207.591 216.544 266.477 275.431 339.008 275.431C411.54 275.431 470.429 216.544 470.429 144.013C470.429 71.4772 411.54 12.5909 339.008 12.5909Z" fill="white"/>
<path d="M339.008 271.763C268.567 271.763 211.259 214.454 211.259 144.013C211.259 73.569 268.567 16.2585 339.008 16.2585C409.452 16.2585 466.76 73.569 466.76 144.013C466.76 214.454 409.452 271.763 339.008 271.763Z" fill="#E32124"/>
<path fill-rule="evenodd" clip-rule="evenodd" d="M455.779 92.2147C450.182 79.6485 442.621 68.1427 433.477 58.0987C424.26 58.0432 415.986 57.435 408.985 56.238L366.79 35.8417C328.268 29.691 318.67 41.586 305.078 49.6567L323.191 74.832L366.79 70.8427L407.929 91.1055C418.69 94.3807 438.635 94.3927 455.779 92.2147Z" fill="white"/>
<path d="M286.375 27.6135C242.116 47.706 211.259 92.3235 211.259 144.013C211.259 197.874 244.765 244.055 292.029 262.811C329.971 247.776 357.623 201.266 357.623 146.207C357.623 88.4483 327.196 40.0875 286.375 27.6135Z" fill="#2C3386"/>
<path fill-rule="evenodd" clip-rule="evenodd" d="M274.774 94.3583L260.114 92.7001L245.453 112.142L250.957 91.6006L236.393 89.7526L254.455 78.7171L260.114 58.1333L265.773 71.8516L283.833 60.9766L269.27 80.4938L274.774 94.3583Z" fill="white"/>
<path fill-rule="evenodd" clip-rule="evenodd" d="M255.178 169.256L240.518 167.597L225.858 187.042L231.362 166.499L216.798 164.652L234.86 153.615L240.518 133.031L246.175 146.75L264.238 135.876L249.673 155.392L255.178 169.256Z" fill="white"/>
<path fill-rule="evenodd" clip-rule="evenodd" d="M289.929 216.378L275.269 214.72L260.611 234.162L266.115 213.621L251.551 211.773L269.611 200.735L275.269 180.151L280.929 193.872L298.989 182.997L284.425 202.514L289.929 216.378Z" fill="white"/>
<path fill-rule="evenodd" clip-rule="evenodd" d="M313.498 132.198L298.837 130.54L284.179 149.984L289.684 129.443L275.119 127.595L293.179 116.557L298.837 95.973L304.497 109.694L322.559 98.8185L307.993 118.334L313.498 132.198Z" fill="white"/>
<path fill-rule="evenodd" clip-rule="evenodd" d="M465.436 125.651C448.391 127.377 431.525 127.783 417.476 126.186L371.087 109.833L355.325 119.065L336.872 152.731L362.123 143.342L418.369 161.412C429.51 162.466 450.578 161.435 465.78 159.854C466.425 154.663 466.76 149.376 466.76 144.013C466.76 137.778 466.304 131.649 465.436 125.651Z" fill="white"/>
<path fill-rule="evenodd" clip-rule="evenodd" d="M410.068 169.896L409.898 169.853L384.656 166.705C383.488 164.452 381.52 163.129 379.247 163.129C377.739 163.129 376.312 163.729 375.235 164.717L364.884 158.403L364.755 157.67C375.85 150.252 378.332 134.941 379.999 124.655C380.215 123.316 380.42 122.053 380.625 120.929L380.701 120.516L380.644 120.101C380.533 119.308 380.457 118.504 380.378 117.653C380.074 114.44 379.696 110.443 377.143 103.997L376.789 103.105L373.827 101.522C373.555 100.173 372.906 98.7038 371.87 97.0823C372.282 95.2853 372.58 92.5365 372.365 89.6355C381.761 75.3135 377.77 60.381 371.8 54.2258C362.956 45.1088 352.179 43.1663 342.773 42.063L342.685 42.0503L342.595 42.0465C341.348 41.9873 340.1 41.9565 338.882 41.9565C320.827 41.9565 296.985 48.7928 285.919 81.372L285.896 81.4418L285.876 81.513C280.972 99.144 281.152 124.872 290.979 139.931C295.073 146.203 300.472 150.14 307.056 151.658L307.301 169.747C303.871 171.718 300.102 176.262 297.849 179.259C297.235 180.076 296.272 181.4 295.21 183.017C291.506 186.038 287.493 188.955 283.538 191.829C275.731 197.501 268.358 202.859 264.027 208.592C257.075 217.787 250.001 234.813 248.29 239.059C271.885 261.587 303.845 275.431 339.008 275.431C389.562 275.431 433.479 246.821 455.457 204.926C446.958 188.2 430.136 175.178 410.068 169.896Z" fill="white"/>
<path fill-rule="evenodd" clip-rule="evenodd" d="M453.926 207.761C445.097 188.851 427.035 177.071 409.401 172.43L376.03 168.269L362.507 160.024L361.867 156.368C374.726 149.187 376.243 130.358 378.048 120.458C377.499 116.494 377.782 112.721 374.707 104.963L371.35 103.17C371.43 101.825 370.779 100.012 369.015 97.5345C369.473 96.4088 370.108 92.7758 369.67 88.9478C378.655 75.972 375.637 61.9448 369.919 56.0498C361.842 47.7248 351.961 45.78 342.468 44.664C321.131 43.62 298.827 51.5198 288.4 82.2158C282.085 104.921 284.152 145.806 309.645 149.48L309.944 171.302C300.055 186.782 275.265 198.066 266.117 210.17C258.433 220.337 250.345 240.974 250.345 240.974C250.345 240.974 250.345 240.977 250.347 240.977C273.725 262.369 304.853 275.431 339.008 275.431C388.414 275.431 431.479 248.104 453.926 207.761Z" fill="#2C3386"/>
<path fill-rule="evenodd" clip-rule="evenodd" d="M367.189 101.905L365.255 96.9143L366.546 90.9578L365.255 89.3468C363.873 85.8983 364.98 84.6368 363.398 84.3405C362.102 84.099 360.248 84.7268 358.01 85.806C358.252 78.021 355.337 73.9073 352.193 71.127C326.915 70.728 318.654 88.2825 315.506 107.54L310.032 104.644C305.243 109.653 307.118 133.964 317.049 124.55C317.276 127.946 314.916 130.83 312.449 130.724L313.463 178.021C315.002 192.931 316.925 204.836 323.051 214.556C328.049 206.216 332.557 199.915 339.158 184.979C345.129 166.271 330.276 166.699 331.204 154.026C331.204 154.026 350.963 158.925 359.8 152.563C343.367 155.552 333.877 153.857 326.778 143.284C356.549 149.814 365.345 137.849 373.79 125.572L372.662 107.057L367.189 101.905Z" fill="white"/>
<path fill-rule="evenodd" clip-rule="evenodd" d="M360.031 100.339C345.368 105.211 336.538 108.031 328.891 110.431L313.322 100.916L309.86 103.944L327.595 115.478L330.909 127.011L327.884 141.573L314.257 127.164L311.301 129.895L330.289 149.482C351.386 156.882 356.854 148.954 366.667 145.282L376.472 123.262C376.718 112.242 374.453 106.304 370.992 102.791L360.031 100.339Z" fill="#2C3386"/>
<path fill-rule="evenodd" clip-rule="evenodd" d="M342.468 47.9453C335.987 48.0173 310.49 45.6203 295.402 75.2723C282.766 100.1 289.337 142.565 309.645 145.591L308.585 128.311C301.951 115.73 303.556 105.731 310.837 100.456C312.532 96.4148 313.333 93.4658 320.015 83.3288C328.301 73.4235 333.985 69.2048 350.447 68.106C360.814 67.9178 366.523 74.6768 366.4 79.0448C367.799 81.4478 367.969 83.9985 368.163 87.7298C373.594 76.0275 373.586 65.8403 366.837 58.1438C360.422 52.443 354.439 49.4213 342.468 47.9453Z" fill="white"/>
<path fill-rule="evenodd" clip-rule="evenodd" d="M344.464 88.9478C339.627 90.2925 337.109 90.5955 334.921 90.747C330.71 94.02 328.616 96.1613 327.64 96.6728C328.563 96.9555 331.787 95.9115 336.68 93.132L342.468 92.8433L344.318 94.8615C337.649 95.3633 333.517 97.23 331.832 99.336L337.738 98.112C338.071 100.423 341.447 101.477 344.75 98.6093C345.348 100.226 340.075 102.638 340.268 104.81C342.255 103.807 344.464 102.773 348.212 101.492L347.636 98.0325L349.655 92.004L344.464 88.9478Z" fill="#2C3386"/>
<path fill-rule="evenodd" clip-rule="evenodd" d="M362.501 88.9478C359.392 89.5988 357.904 90.735 356.862 92.004L355.997 94.8615L359.024 102.503L361.91 102.791L358.594 94.284L362.285 92.3723C365.617 93.7913 367.404 94.2435 368.542 94.284L367.674 89.9588L362.501 88.9478Z" fill="#2C3386"/>
<path fill-rule="evenodd" clip-rule="evenodd" d="M362.332 94.1985L357.562 95.5102L358.88 98.6092L361.108 98.4007L363.7 100.21C365.6 100.632 366.757 99.0232 368.542 99.6187L367.674 96.8797L362.332 94.1985Z" fill="#2C3386"/>
<path fill-rule="evenodd" clip-rule="evenodd" d="M307.727 107.837L306.112 110.72L309.86 111.01V113.603C307.506 116.61 310.079 118.039 312.601 118.793L311.16 108.701L307.727 107.837Z" fill="#2C3386"/>
<path fill-rule="evenodd" clip-rule="evenodd" d="M360.323 102.791L330.334 113.317C332.854 119.72 334.19 124.516 334.372 127.733C332.03 137.585 331.05 141.389 330.045 145.282C347.018 155.171 356.592 150.631 367.099 147.918C370.988 142.685 373.479 130.88 374.797 121.244C375.033 117.317 372.811 113.194 371.473 105.938L360.323 102.791Z" fill="white"/>
<path fill-rule="evenodd" clip-rule="evenodd" d="M362.27 105.385L364.36 109.856L359.458 109.567L342.468 115.478L359.599 112.595L365.224 113.317L365.656 117.351L372.865 121.244L369.404 107.837L362.27 105.385Z" fill="#2C3386"/>
<path fill-rule="evenodd" clip-rule="evenodd" d="M341.604 126.438C341.604 126.438 362.311 120.696 364.216 122.688L366.953 123.697L366.81 128.597L359.107 129.318L346.625 134.077L359.599 131.336L365.946 131.77L364.216 139.12C361.852 144.412 359.736 147.247 357.668 149.596C359.085 149.357 360.073 149.383 365.428 146.694C368.458 142.168 371.185 130.709 372.003 122.974L364.792 120.09C358.846 117.691 338.515 126.133 341.604 126.438Z" fill="#2C3386"/>
<path fill-rule="evenodd" clip-rule="evenodd" d="M371.907 193.984L349.481 183.259L317.481 228.67L320.948 219.385C315.731 207.746 311.717 196.314 309.303 181.22C295.868 191.377 282.005 198.693 269.769 211.603C263.03 222.048 258.04 233.173 255.022 245.056C259.558 248.833 264.355 252.304 269.376 255.45L272.804 233.617C275.336 245.975 278.423 252.415 283.397 263.089C300.291 271.001 319.135 275.431 339.008 275.431C364.812 275.431 388.886 267.971 409.2 255.1C405.641 242.37 405.428 232.203 404.627 217.531C410.044 231.358 414.981 238.575 422.049 245.836C429.524 239.73 436.314 232.819 442.289 225.235C449.812 215.684 437.041 192.849 425.836 189.115L371.907 193.984Z" fill="white"/>
<path fill-rule="evenodd" clip-rule="evenodd" d="M352.43 186.298L364.351 164.347L363.256 162.328L349.48 183.259L352.43 186.298Z" fill="white"/>
<path fill-rule="evenodd" clip-rule="evenodd" d="M376.03 168.269C367.762 210.983 359.225 234.953 347.454 253.608L352.973 256.9C368.374 231.155 374.756 205.038 382.59 168.478C380.918 164.251 376.715 165.539 376.03 168.269Z" fill="#2C3386"/>
<path fill-rule="evenodd" clip-rule="evenodd" d="M349.48 242.725C341.659 242.725 335.31 249.076 335.31 256.9C335.31 264.717 341.659 271.066 349.48 271.066C357.3 271.066 363.652 264.717 363.652 256.9C363.652 249.076 357.3 242.725 349.48 242.725Z" fill="#2C3386"/>
<path fill-rule="evenodd" clip-rule="evenodd" d="M342.949 257.765C342.949 262.283 346.291 266.027 350.635 266.649C348.345 265.024 346.849 262.349 346.849 259.328C346.849 254.369 350.871 250.347 355.824 250.347C356.26 250.347 356.688 250.382 357.108 250.444C355.642 249.404 353.855 248.789 351.922 248.789C346.969 248.789 342.949 252.814 342.949 257.765Z" fill="white"/>
<path fill-rule="evenodd" clip-rule="evenodd" d="M314.928 230.834C313.69 224.691 312.263 205.54 297.239 198.713C296.035 191.191 307.306 181.058 310.742 171.462C306.677 170.019 289.991 191.86 291.998 198.814C282.339 214.424 283.768 227.804 286.441 239.337C289.843 251.498 293.665 260.912 297.72 268.794C300.205 269.615 302.72 270.367 305.269 271.042C300.119 262.216 295.437 253.575 291.02 235.425C286.406 219.074 294.674 204.539 294.674 204.539C302.254 206.133 306.97 217.068 309.537 228.47L320.648 274.145C322.52 274.407 324.406 274.632 326.306 274.817L314.928 230.834Z" fill="#2C3386"/>
<path fill-rule="evenodd" clip-rule="evenodd" d="M376.048 199.057L378.318 203.331C380.31 199.051 383.048 182.462 381.256 173.552L376.048 199.057Z" fill="white"/>
<path fill-rule="evenodd" clip-rule="evenodd" d="M328.477 241.834C342.069 225.542 355.869 207.769 370.29 185.529L369.189 181.85C354.569 205.945 341.354 224.554 328.477 241.834Z" fill="#2C3386"/>
<path fill-rule="evenodd" clip-rule="evenodd" d="M350.078 70.9837L353.57 74.1997C355.489 72.558 361.206 75.0262 364.796 80.2155C362.761 73.6552 356.911 69.549 350.078 70.9837Z" fill="white"/>
<path fill-rule="evenodd" clip-rule="evenodd" d="M364.796 75.4546L366.239 77.5628C368.132 75.4876 368.957 71.5508 369.136 66.4973C367.934 70.7483 366.568 74.1361 364.796 75.4546Z" fill="#2C3386"/>
<path fill-rule="evenodd" clip-rule="evenodd" d="M357.437 70.1647L359.824 71.1187C361.13 70.1039 362.182 67.1887 362.93 61.9814C361.331 66.4807 359.497 69.1807 357.437 70.1647Z" fill="#2C3386"/>
<path fill-rule="evenodd" clip-rule="evenodd" d="M346.701 69.7418L349.654 69.318C351.147 67.5533 351.916 63.9608 351.922 58.4528C351.037 64.2473 349.168 67.6988 346.701 69.7418Z" fill="#2C3386"/>
<path fill-rule="evenodd" clip-rule="evenodd" d="M336.824 72.0277L340.21 71.1187C342.01 68.208 342.967 64.3207 343.315 59.724C341.671 66.3105 339.414 69.9562 336.824 72.0277Z" fill="#2C3386"/>
<path fill-rule="evenodd" clip-rule="evenodd" d="M328.78 75.8084L332.168 74.3984C333.644 71.8432 334.061 67.6184 333.578 61.9814C333.15 68.9759 331.355 73.1887 328.78 75.8084Z" fill="#2C3386"/>
<path fill-rule="evenodd" clip-rule="evenodd" d="M322.136 69.7417C319.659 74.7997 318.212 79.6424 321.159 83.5702L323.419 81.4522C320.261 80.3017 321.235 75.0637 322.136 69.7417Z" fill="#2C3386"/>
<path fill-rule="evenodd" clip-rule="evenodd" d="M311.141 81.4523C310.396 86.4323 312.199 92.19 315.094 95.1398L317.069 90.4853C314.296 90.0555 311.663 85.632 311.141 81.4523Z" fill="#2C3386"/>
<path fill-rule="evenodd" clip-rule="evenodd" d="M306.77 90.7657C306.507 95.67 307.349 99.8827 311.426 102.055L312.552 99.0907C309.711 99.279 307.985 95.8462 306.77 90.7657Z" fill="#2C3386"/>
<path fill-rule="evenodd" clip-rule="evenodd" d="M297.314 118.565C300.571 124.831 304.196 129.021 308.603 128.865L308.038 124.915C303.973 125.999 300.586 122.667 297.314 118.565Z" fill="#2C3386"/>
<path fill-rule="evenodd" clip-rule="evenodd" d="M297.098 130.771C302.718 135.043 307.787 137.282 311.707 135.258L309.506 131.93C306.294 134.646 301.808 133.082 297.098 130.771Z" fill="#2C3386"/>
<path fill-rule="evenodd" clip-rule="evenodd" d="M297.92 186.808C295.234 206.281 307.768 245.226 307.768 245.226C299.4 226.613 293.356 203.886 295.458 189.271L297.92 186.808Z" fill="#2C3386"/>
</g>
</g>
<path d="M39.424 448.792C32.704 448.792 26.88 447.56 21.952 445.096C17.0987 442.632 13.328 439.123 10.64 434.568C7.952 429.939 6.608 424.525 6.608 418.328V367.368H23.632V418.328C23.632 423.48 24.976 427.475 27.664 430.312C30.4267 433.075 34.3467 434.456 39.424 434.456C44.5013 434.456 48.384 433.075 51.072 430.312C53.76 427.475 55.104 423.48 55.104 418.328V367.368H72.128V418.328C72.128 424.525 70.784 429.939 68.096 434.568C65.4827 439.123 61.712 442.632 56.784 445.096C51.856 447.56 46.0693 448.792 39.424 448.792ZM116.046 448.792C109.177 448.792 103.278 447.635 98.35 445.32C93.422 443.005 89.5767 439.757 86.814 435.576C84.0513 431.395 82.4833 426.467 82.11 420.792L99.246 420.008C99.694 423.144 100.59 425.832 101.934 428.072C103.353 430.237 105.219 431.88 107.534 433C109.923 434.12 112.835 434.68 116.27 434.68C119.107 434.68 121.497 434.344 123.438 433.672C125.454 433 126.985 431.992 128.03 430.648C129.075 429.229 129.598 427.512 129.598 425.496C129.598 423.629 129.15 422.024 128.254 420.68C127.358 419.261 125.641 417.992 123.102 416.872C120.563 415.677 116.83 414.52 111.902 413.4C105.107 411.832 99.6193 410.077 95.438 408.136C91.3313 406.195 88.3447 403.768 86.478 400.856C84.6113 397.869 83.678 394.136 83.678 389.656C83.678 384.877 84.8353 380.696 87.15 377.112C89.5393 373.528 92.974 370.728 97.454 368.712C101.934 366.696 107.273 365.688 113.47 365.688C120.041 365.688 125.603 366.845 130.158 369.16C134.713 371.475 138.259 374.648 140.798 378.68C143.411 382.712 144.979 387.341 145.502 392.568L128.478 393.464C128.254 390.701 127.507 388.312 126.238 386.296C124.969 384.205 123.251 382.6 121.086 381.48C118.921 380.36 116.307 379.8 113.246 379.8C109.363 379.8 106.302 380.659 104.062 382.376C101.897 384.093 100.814 386.333 100.814 389.096C100.814 391.037 101.299 392.68 102.27 394.024C103.315 395.293 104.995 396.413 107.31 397.384C109.699 398.355 113.059 399.288 117.39 400.184C124.782 401.677 130.606 403.581 134.862 405.896C139.193 408.136 142.254 410.824 144.046 413.96C145.838 417.096 146.734 420.68 146.734 424.712C146.734 429.64 145.465 433.933 142.926 437.592C140.462 441.176 136.915 443.939 132.286 445.88C127.731 447.821 122.318 448.792 116.046 448.792ZM156.594 447V367.48H179.33L199.602 425.384L219.762 367.48H242.498V447H225.474V395.48L206.77 446.776H192.21L173.618 395.48V447H156.594ZM256.615 447V367.48H273.639V442.408L264.231 432.664H310.263V447H256.615ZM316.495 447V367.48H371.823V381.816H333.519V400.072H370.479V414.184H333.519V432.664H372.719V447H316.495Z" fill="#1F3A8F"/>
<path d="M436.56 448.408L417.232 380.184C415.952 375.661 414.928 372.12 414.16 369.56C413.477 366.915 413.008 364.653 412.752 362.776C411.557 362.861 410.363 362.904 409.168 362.904C407.973 362.904 406.779 362.947 405.584 363.032L405.84 357.4H436.56L436.304 361.624C431.355 361.88 428.325 362.989 427.216 364.952C426.107 366.915 426.107 370.456 427.216 375.576L435.408 405.4C436.432 409.24 437.456 412.909 438.48 416.408C439.504 419.821 440.571 423.533 441.68 427.544H441.936C442.448 426.093 443.003 424.557 443.6 422.936C444.283 421.229 444.923 419.565 445.52 417.944C446.117 416.323 446.672 414.829 447.184 413.464C447.696 412.013 448.123 410.861 448.464 410.008L467.92 357.144H471.376L484.688 405.4C485.797 409.24 486.864 413.08 487.888 416.92C488.997 420.76 490.064 424.685 491.088 428.696H491.344C492.283 426.221 493.307 423.576 494.416 420.76C495.611 417.859 496.763 414.915 497.872 411.928C500.176 405.528 502.139 400.195 503.76 395.928C505.381 391.661 506.704 388.12 507.728 385.304C508.837 382.488 509.776 380.056 510.544 378.008C511.397 375.96 512.208 373.955 512.976 371.992C513.488 370.541 514.128 369.005 514.896 367.384C515.664 365.677 516.475 364.099 517.328 362.648C515.621 362.733 513.915 362.819 512.208 362.904C510.501 362.904 508.795 362.947 507.088 363.032L507.344 357.4H533.328L533.072 361.624C530.939 361.88 529.104 362.307 527.568 362.904C526.117 363.416 524.837 364.312 523.728 365.592C522.619 366.872 521.467 368.707 520.272 371.096C519.163 373.485 517.84 376.643 516.304 380.568L489.68 448.408H486.352L471.76 397.976C470.48 393.539 469.456 389.912 468.688 387.096C468.005 384.28 467.323 381.592 466.64 379.032H466.128C465.019 381.848 463.952 384.664 462.928 387.48C461.904 390.296 460.837 393.112 459.728 395.928L439.888 448.408H436.56ZM542.714 381.592C546.298 381.592 548.986 382.829 550.778 385.304C552.57 387.693 553.466 390.893 553.466 394.904C553.466 397.464 553.21 400.408 552.698 403.736C552.271 406.979 551.717 410.477 551.034 414.232C550.351 417.987 549.754 421.784 549.242 425.624C548.815 429.379 548.602 433.048 548.602 436.632C548.602 438.339 548.901 439.661 549.498 440.6C550.181 441.539 551.205 442.008 552.57 442.008C554.021 442.008 555.599 441.069 557.306 439.192C559.098 437.315 560.634 434.115 561.914 429.592L565.498 430.36C565.157 432.152 564.559 434.115 563.706 436.248C562.938 438.296 561.914 440.259 560.634 442.136C559.354 443.928 557.775 445.421 555.898 446.616C554.106 447.811 552.015 448.408 549.626 448.408C545.701 448.408 542.799 447.384 540.922 445.336C539.045 443.288 538.106 440.301 538.106 436.376C538.106 432.621 538.362 428.995 538.874 425.496C539.386 421.912 539.941 418.413 540.538 415C541.221 411.501 541.818 408.003 542.33 404.504C542.842 401.005 543.098 397.421 543.098 393.752C543.098 392.643 542.842 391.405 542.33 390.04C541.903 388.675 540.965 387.992 539.514 387.992C538.149 387.992 536.57 388.931 534.778 390.808C532.986 392.685 531.45 395.885 530.17 400.408L526.586 399.64C526.842 398.104 527.354 396.355 528.122 394.392C528.89 392.344 529.914 390.339 531.194 388.376C532.559 386.413 534.181 384.792 536.058 383.512C537.935 382.232 540.154 381.592 542.714 381.592ZM550.01 353.944C551.973 353.944 553.594 354.627 554.874 355.992C556.154 357.272 556.794 359.021 556.794 361.24C556.794 363.373 556.111 365.123 554.746 366.488C553.381 367.768 551.759 368.408 549.882 368.408C548.005 368.408 546.383 367.768 545.018 366.488C543.738 365.123 543.098 363.373 543.098 361.24C543.098 359.021 543.781 357.272 545.146 355.992C546.511 354.627 548.133 353.944 550.01 353.944ZM588.95 448.408C585.537 448.408 582.251 447.896 579.094 446.872C575.937 445.763 573.377 444.184 571.414 442.136C569.451 440.088 568.47 437.613 568.47 434.712C568.47 432.835 568.982 431.341 570.006 430.232C571.115 429.037 572.438 428.44 573.974 428.44C575.681 428.44 576.961 428.995 577.814 430.104C578.753 431.213 579.222 432.451 579.222 433.816C579.222 434.413 579.137 435.053 578.966 435.736C578.795 436.419 578.497 437.101 578.07 437.784C578.753 439.661 580.118 441.112 582.166 442.136C584.214 443.16 586.39 443.672 588.694 443.672C593.302 443.672 596.758 442.605 599.062 440.472C601.366 438.339 602.518 435.352 602.518 431.512C602.518 429.208 601.707 427.16 600.086 425.368C598.465 423.576 596.417 421.912 593.942 420.376C591.467 418.755 588.907 417.176 586.262 415.64C583.787 414.104 581.398 412.525 579.094 410.904C576.875 409.283 575.041 407.491 573.59 405.528C572.225 403.565 571.542 401.347 571.542 398.872C571.542 395.715 572.481 392.856 574.358 390.296C576.235 387.651 578.838 385.56 582.166 384.024C585.494 382.403 589.334 381.592 593.686 381.592C596.929 381.592 599.958 382.104 602.774 383.128C605.675 384.152 608.022 385.603 609.814 387.48C611.691 389.357 612.63 391.576 612.63 394.136C612.63 395.928 612.118 397.379 611.094 398.488C610.07 399.512 608.79 400.024 607.254 400.024C605.718 400.024 604.481 399.512 603.542 398.488C602.603 397.464 602.134 396.269 602.134 394.904C602.134 394.221 602.219 393.581 602.39 392.984C602.561 392.301 602.859 391.619 603.286 390.936C602.859 389.485 601.793 388.291 600.086 387.352C598.465 386.328 596.203 385.816 593.302 385.816C591.425 385.816 589.59 386.243 587.798 387.096C586.006 387.949 584.513 389.144 583.318 390.68C582.123 392.131 581.526 393.88 581.526 395.928C581.526 397.549 581.995 399.043 582.934 400.408C583.958 401.773 585.281 403.053 586.902 404.248C588.523 405.443 590.273 406.637 592.15 407.832C595.222 409.624 598.379 411.544 601.622 413.592C604.865 415.555 607.553 417.816 609.686 420.376C611.905 422.936 613.014 426.051 613.014 429.72C613.014 433.304 611.99 436.504 609.942 439.32C607.979 442.136 605.163 444.355 601.494 445.976C597.91 447.597 593.729 448.408 588.95 448.408ZM652.916 381.592C655.988 381.592 658.889 382.061 661.62 383C664.351 383.939 666.569 385.475 668.276 387.608C669.983 389.741 670.836 392.643 670.836 396.312C670.836 399.811 669.641 402.84 667.252 405.4C664.863 407.96 661.748 410.093 657.908 411.8C654.068 413.421 649.972 414.744 645.62 415.768C641.268 416.792 637.087 417.517 633.076 417.944C633.076 423.235 633.588 427.672 634.612 431.256C635.721 434.84 637.343 437.528 639.476 439.32C641.609 441.112 644.34 442.008 647.668 442.008C650.143 442.008 652.617 441.453 655.092 440.344C657.652 439.235 660.084 437.571 662.388 435.352C664.692 433.048 666.783 430.104 668.66 426.52L672.884 428.952C670.495 433.389 667.935 437.059 665.204 439.96C662.473 442.861 659.487 444.995 656.244 446.36C653.001 447.725 649.417 448.408 645.492 448.408C637.385 448.408 631.412 445.891 627.572 440.856C623.732 435.736 621.812 429.037 621.812 420.76C621.812 415.811 622.452 410.989 623.732 406.296C625.012 401.603 626.932 397.421 629.492 393.752C632.052 389.997 635.295 387.053 639.22 384.92C643.145 382.701 647.711 381.592 652.916 381.592ZM651.124 385.944C647.199 385.944 643.956 387.267 641.396 389.912C638.921 392.557 637.001 395.971 635.636 400.152C634.356 404.333 633.545 408.728 633.204 413.336C637.727 412.739 642.036 411.672 646.132 410.136C650.228 408.6 653.599 406.637 656.244 404.248C658.889 401.773 660.212 398.915 660.212 395.672C660.212 392.941 659.444 390.637 657.908 388.76C656.457 386.883 654.196 385.944 651.124 385.944Z" fill="#20222B"/>
<defs>
<clipPath id="clip0_1_78">
<rect width="288" height="288" fill="white" transform="translate(195)"/>
</clipPath>
<clipPath id="clip1_1_78">
<rect width="288" height="288" fill="white" transform="translate(195)"/>
</clipPath>
</defs>
</svg>
